<svg enable-background="new 0 0 512 512" id="Layer_1" version="1.1" viewBox="0 0 512 512" xml:space="preserve" xmlns="http://www.w3.org/2000/svg" xmlns:xlink="http://www.w3.org/1999/xlink"><g><g><linearGradient gradientUnits="userSpaceOnUse" id="SVGID_1_" x1="0.0000083" x2="512" y1="256" y2="256"><stop offset="0" style="stop-color:#95A5A6"></stop><stop offset="1" style="stop-color:#7F8C8D"></stop></linearGradient><circle cx="256" cy="256" fill="url(#SVGID_1_)" r="256"></circle><linearGradient gradientUnits="userSpaceOnUse" id="SVGID_2_" x1="42.6666756" x2="469.333313" y1="256.0005188" y2="256.0005188"><stop offset="0" style="stop-color:#7F8C8D"></stop><stop offset="1" style="stop-color:#95A5A6"></stop></linearGradient><path d="M256,469.3338623c-117.6309204,0-213.3333282-95.7018738-213.3333282-213.3333435    S138.3690796,42.6671982,256,42.6671982c117.636261,0,213.333313,95.7018661,213.333313,213.333313    S373.636261,469.3338623,256,469.3338623z" fill="url(#SVGID_2_)"></path></g><g id="XMLID_60_"><g id="XMLID_64_"><polygon opacity="0.3" points="384,384 321.6000061,384 321.6000061,374.3999939 374.3999939,374.3999939      374.3999939,321.6000061 384,321.6000061    "></polygon></g><g id="XMLID_63_"><polygon opacity="0.3" points="384,206.3999939 374.3999939,206.3999939 374.3999939,153.6000061 321.6000061,153.6000061      321.6000061,144 384,144    "></polygon></g><g id="XMLID_62_"><polygon opacity="0.3" points="153.6000061,206.3999939 144.0000153,206.3999939 144.0000153,144 206.3999939,144      206.3999939,153.6000061 153.6000061,153.6000061    "></polygon></g><g id="XMLID_61_"><polygon opacity="0.3" points="206.3999939,384 144.0000153,384 144.0000153,321.6000061 153.6000061,321.6000061      153.6000061,374.3999939 206.3999939,374.3999939    "></polygon></g></g><g id="XMLID_430_"><g id="XMLID_434_"><polygon fill="#FFFFFF" points="376,376 313.6000061,376 313.6000061,366.3999939 366.3999939,366.3999939      366.3999939,313.6000061 376,313.6000061    "></polygon></g><g id="XMLID_433_"><polygon fill="#FFFFFF" points="376,198.3999939 366.3999939,198.3999939 366.3999939,145.6000061 313.6000061,145.6000061      313.6000061,136 376,136    "></polygon></g><g id="XMLID_432_"><polygon fill="#FFFFFF" points="145.6000061,198.3999939 136.0000153,198.3999939 136.0000153,136 198.3999939,136      198.3999939,145.6000061 145.6000061,145.6000061    "></polygon></g><g id="XMLID_431_"><polygon fill="#FFFFFF" points="198.3999939,376 136.0000153,376 136.0000153,313.6000061 145.6000061,313.6000061      145.6000061,366.3999939 198.3999939,366.3999939    "></polygon></g></g></g></svg>